# xmcd
#
# Track frame offsets:
#	150
#	11943
#	25322
#	44775
#	58438
#	80929
#	85978
#	99701
#	113787
#	129346
#	142462
#	164719
#	178733
#
# Disc length: 2760 seconds
#
# Revision: 1
# Processed by: cddbd v1.5.2PL0 Copyright (c) Steve Scherf et al.
# Submitted via: audiograbber 1.83.01
#
DISCID=cf0ac60d
DTITLE=duck soup - favorite recipes
DYEAR=2007
DGENRE=Country
TTITLE0=my grandfathers clock
TTITLE1=the old home place
TTITLE2=night riders lament
TTITLE3=dixieland
TTITLE4=my creole belle
TTITLE5=road to lisdoonvarna
TTITLE6=walk in the irish rain
TTITLE7=battle of new orleans
TTITLE8=keep on the sunnyside
TTITLE9=you aint going nowhere
TTITLE10=pancho and lefty
TTITLE11=the logging song
TTITLE12=pilgrim
EXTD=
EXTT0=
EXTT1=
EXTT2=
EXTT3=
EXTT4=
EXTT5=
EXTT6=
EXTT7=
EXTT8=
EXTT9=
EXTT10=
EXTT11=
EXTT12=
PLAYORDER=
